<svg width="77" height="25" viewBox="0 0 77 25" fill="none" xmlns="http://www.w3.org/2000/svg">
<path fill-rule="evenodd" clip-rule="evenodd" d="M4.89298 12.6222C4.87882 14.9146 6.70823 16.281 9.62772 15.6599V9.58588C6.67205 8.75963 4.90399 10.4323 4.89298 12.6222ZM9.71739 0.804871H13.738V18.286C9.88412 18.8638 6.19071 19.2321 3.54963 17.8758C0.148796 16.1279 -0.124907 10.5811 2.56651 8.10961C3.93187 6.8558 6.67834 5.97467 9.62772 6.54957V1.05188C9.61986 0.934873 9.61357 0.817871 9.71739 0.804871ZM20.2644 4.66164H16.2422V0.804871H20.2644V4.66164ZM68.5242 15.8231C72.9081 17.3875 73.3942 8.61663 68.9709 9.42265C66.2244 9.92244 66.3125 15.0345 68.5242 15.8231ZM68.7035 6.38491C72.0509 6.05701 74.5771 7.41338 75.5854 9.50499C77.3047 13.0714 75.491 17.1636 72.7241 18.3669C71.2927 18.9909 69.7905 19.0501 68.4345 18.9418C64.244 18.6067 61.6014 14.6849 63.0722 10.3254C63.3034 9.64221 63.5614 9.22476 63.6982 9.01097C64.6105 7.5896 66.1474 6.63625 68.7035 6.38491ZM25.8045 14.4278C24.6924 16.1453 27.4876 16.5569 29.2903 16.0702V13.5264C27.906 13.7026 26.3283 13.6203 25.8045 14.4278ZM32.8657 18.4492C29.5435 18.6254 24.4942 19.664 22.6774 17.6287C21.6093 16.4327 21.7241 14.1519 22.6774 13.0339C23.909 11.5879 26.5973 11.2716 29.0229 11.0636C29.2431 10.5652 29.0937 9.75488 28.8436 9.42265C26.6256 8.90264 24.4203 9.70721 22.8551 10.3254V7.45237C25.2194 6.45568 30.6918 5.40554 32.3293 7.69794C33.1898 8.90263 32.8642 11.0029 32.8642 12.8692L32.8657 18.4492ZM46.9866 18.6153H42.9644V13.8543C42.9644 12.2871 43.2397 10.2994 42.3384 9.66821C41.6321 9.1742 39.9568 9.42265 38.9422 9.66821V18.6139H34.9201V7.20681C39.0319 6.22457 46.4533 5.17443 46.985 9.91522C47.2493 12.2524 46.7915 15.7581 46.985 18.6139L46.9866 18.6153ZM52.975 14.6748C53.6514 15.6801 55.4824 16.0572 56.9956 15.4129C56.9121 13.4446 56.8822 11.4747 56.906 9.50499C53.4296 8.66141 51.3611 12.2755 52.975 14.6748ZM63.0737 6.87747C62.7151 7.86261 62.1913 8.69463 61.7319 9.58588C61.3182 9.67255 60.958 9.43565 60.7488 9.58588C60.6576 13.5871 61.6769 19.0097 59.945 21.8972C58.9021 23.6349 56.9815 24.75 54.0462 24.9335C52.2209 25.0661 50.3867 24.8136 48.6839 24.1954V20.7474C50.518 21.7311 55.1536 22.5328 56.4592 20.5018C56.8431 19.9038 56.8195 19.2856 56.9941 18.3683C56.1556 18.4088 55.3393 18.7656 54.3137 18.7786C50.0996 18.8291 47.4915 15.748 48.5046 11.4738C48.8978 9.82133 49.9517 8.48952 51.3658 7.69938C54.2995 6.05556 58.814 6.18123 63.0737 6.87747Z" fill="white"/>
<path fill-rule="evenodd" clip-rule="evenodd" d="M20.2644 6.61603C20.2597 9.33454 20.2597 11.2889 20.2597 14.5925C20.0898 17.8396 20.1291 20.4253 18.8345 21.9781C18.5781 22.2843 18.037 22.7321 17.5824 23.0456C17.2017 23.3085 16.4766 23.8429 16.0645 23.866C15.6476 23.8891 14.5811 23.3359 14.0982 23.1279C13.4627 22.8534 12.876 22.4894 12.22 22.3074C13.7506 21.4364 15.2024 20.7835 15.7955 19.0241C16.3114 17.493 16.2422 15.2757 16.2422 13.1162C16.2422 10.9812 16.2532 8.49963 16.2532 6.61603H20.2644Z" fill="white"/>
</svg>
